<?xml version="1.0" standalone="no"?><!DOCTYPE svg PUBLIC "-//W3C//DTD SVG 1.1//EN" "http://www.w3.org/Graphics/SVG/1.1/DTD/svg11.dtd"><svg class="icon" width="200px" height="200.00px" viewBox="0 0 1024 1024" version="1.1" xmlns="http://www.w3.org/2000/svg"><path fill="#1afa29" d="M935.563636 993.745455l-849.454545-2.327273c-23.272727 0-44.218182-11.636364-60.509091-30.254546-13.963636-18.618182-23.272727-41.890909-23.272727-67.490909 0-25.6 9.309091-48.872727 23.272727-67.490909 16.290909-18.618182 37.236364-30.254545 60.509091-30.254545l514.327273 2.327272c13.963636 0 23.272727 11.636364 23.272727 23.272728 0 13.963636-9.309091 23.272727-23.272727 23.272727h-512c-11.636364 0-20.945455 6.981818-23.272728 11.636364-6.981818 9.309091-11.636364 23.272727-11.636363 37.236363 0 13.963636 4.654545 27.927273 11.636363 37.236364 4.654545 4.654545 11.636364 13.963636 23.272728 13.963636l849.454545 4.654546c11.636364 0 20.945455-6.981818 23.272727-11.636364 6.981818-9.309091 11.636364-23.272727 11.636364-37.236364 0-13.963636-4.654545-27.927273-11.636364-37.236363-4.654545-4.654545-11.636364-13.963636-23.272727-13.963637h-116.363636c-13.963636 0-23.272727-11.636364-23.272728-23.272727 0-13.963636 11.636364-23.272727 23.272728-23.272727h116.363636c23.272727 0 44.218182 11.636364 60.509091 30.254545 13.963636 18.618182 23.272727 41.890909 23.272727 67.490909 0 25.6-9.309091 48.872727-23.272727 67.49091-18.618182 16.290909-39.563636 25.6-62.836364 25.6zM809.890909 200.145455c46.545455 0 83.781818-37.236364 83.781818-86.109091 0-23.272727-9.309091-44.218182-25.6-60.509091-16.290909-16.290909-37.236364-23.272727-60.509091-23.272728C761.018182 30.254545 721.454545 69.818182 721.454545 116.363636c2.327273 44.218182 41.890909 83.781818 88.436364 83.781819zM761.018182 116.363636c0-25.6 20.945455-46.545455 44.218182-46.545454h2.327272c11.636364 0 23.272727 4.654545 32.581819 11.636363 9.309091 9.309091 13.963636 20.945455 13.963636 32.581819 0 13.963636-4.654545 25.6-11.636364 32.581818-9.309091 9.309091-20.945455 13.963636-34.909091 13.963636-25.6 0-46.545455-18.618182-46.545454-44.218182z m6.981818-2.327272"  /><path fill="#1afa29" d="M107.054545 800.581818H512 197.818182c-16.290909 0-27.927273-18.618182-18.618182-32.581818 4.654545-6.981818 11.636364-11.636364 20.945455-16.290909 55.854545-25.6 88.436364-79.127273 90.763636-153.6 2.327273-27.927273-2.327273-58.181818-6.981818-86.109091-2.327273-16.290909-4.654545-32.581818-6.981818-46.545455-2.327273-13.963636-2.327273-30.254545 4.654545-44.218181 27.927273-60.509091 55.854545-121.018182 83.781818-183.854546 2.327273-4.654545 4.654545-11.636364 6.981818-16.290909 6.981818-16.290909 30.254545-16.290909 39.563637 0l225.745454 467.781818c9.309091 20.945455 18.618182 27.927273 27.927273 30.254546 9.309091 0 20.945455-6.981818 32.581818-25.6 18.618182-23.272727 34.909091-48.872727 53.527273-72.145455 9.309091-13.963636 30.254545-11.636364 37.236364 2.327273L861.090909 768c6.981818 13.963636-2.327273 30.254545-18.618182 30.254545H837.818182h109.381818c-11.636364-4.654545-16.290909-11.636364-23.272727-25.6-27.927273-55.854545-55.854545-114.036364-83.781818-167.563636-9.309091-18.618182-18.618182-39.563636-30.254546-58.181818-11.636364-23.272727-20.945455-32.581818-30.254545-32.581818s-20.945455 6.981818-37.236364 27.927272c-16.290909 23.272727-32.581818 44.218182-48.872727 67.49091-9.309091 13.963636-30.254545 11.636364-37.236364-2.327273l-100.072727-204.8c-11.636364-23.272727-20.945455-44.218182-32.581818-67.490909-32.581818-69.818182-67.490909-141.963636-104.727273-211.781818-4.654545-11.636364-18.618182-25.6-32.581818-25.6-9.309091-2.327273-18.618182 11.636364-27.927273 25.6-4.654545 6.981818-6.981818 13.963636-11.636364 20.945454-2.327273 2.327273-2.327273 6.981818-4.654545 9.309091L239.709091 372.363636c-4.654545-4.654545-6.981818-9.309091-9.309091-13.963636-9.309091-11.636364-18.618182-23.272727-27.927273-32.581818-32.581818-30.254545-67.490909-30.254545-100.072727 0-11.636364 11.636364-23.272727 25.6-30.254545 37.236363C37.236364 439.854545 18.618182 523.636364 23.272727 609.745455c4.654545 69.818182 27.927273 116.363636 76.8 141.963636 13.963636 6.981818 20.945455 16.290909 23.272728 27.927273 0 9.309091-6.981818 18.618182-16.29091 20.945454z m-39.563636-202.472727c-4.654545-74.472727 13.963636-148.945455 58.181818-216.436364 11.636364-16.290909 20.945455-25.6 30.254546-25.6s18.618182 9.309091 27.927272 25.6c46.545455 86.109091 62.836364 167.563636 46.545455 249.018182-2.327273 16.290909-9.309091 30.254545-16.290909 41.890909-11.636364 16.290909-39.563636 9.309091-39.563636-11.636363v-90.763637-6.981818c0-6.981818 0-11.636364-2.327273-16.290909-4.654545-6.981818-9.309091-13.963636-16.290909-18.618182l-6.981818-6.981818-2.327273-2.327273-2.327273 2.327273c-2.327273 2.327273-4.654545 4.654545-9.309091 6.981818-6.981818 6.981818-13.963636 13.963636-13.963636 20.945455-2.327273 32.581818-2.327273 65.163636-2.327273 95.418181v62.836364c-30.254545-27.927273-48.872727-62.836364-51.2-109.381818z"  /></svg>