<?xml version="1.0" encoding="utf-8"?>
<!-- Generator: Adobe Illustrator 24.0.0, SVG Export Plug-In . SVG Version: 6.00 Build 0)  -->
<svg version="1.1" id="图层_1" xmlns="http://www.w3.org/2000/svg" xmlns:xlink="http://www.w3.org/1999/xlink" x="0px" y="0px"
	 viewBox="0 0 777.3 747.7" class="legend" style="enable-background:new 0 0 777.3 747.7;min-width:100px;" xml:space="preserve">
<style type="text/css">
	.legend0{opacity:0.3;fill:#00FF48;enable-background:new    ;}
	.legend1{opacity:0.5;fill:#00FF48;enable-background:new    ;}
	.legend2{fill:#FFFFFF;}
	.legend3{fill:#00FF48;}
	.legend4{fill:#1CEF18;}
	.legend5{font-family:'AdobeSongStd-Light-GBpc-EUC-H';}
	.legend6{font-size:120.66px;}
	.legend7{fill:none;stroke:#FFA901;stroke-width:20;stroke-miterlimit:10;}
	.legend8{opacity:0.8;}
	.legend9{fill:#18EAEA;}
	.legend10{fill:none;stroke:#08F9FF;stroke-width:20;stroke-miterlimit:10;}
</style>
<title>资源 4</title>
<g id="图层_2_1_">
	<g id="图层_1-2">
		<circle class="legend0" cx="125.4" cy="58.2" r="58.2"/>
		<circle class="legend1" cx="125.4" cy="58.2" r="39.3"/>
		<circle class="legend2" cx="125.4" cy="58.2" r="21.8"/>
		
			<ellipse transform="matrix(0.1091 -0.994 0.994 0.1091 53.8245 176.5363)" class="legend3" cx="125.4" cy="58.2" rx="11.5" ry="11.5"/>
		<text transform="matrix(1 0 0 1 294.66 109.58)" class="legend4 legend5 legend6">遗产点</text>
		<text transform="matrix(1 0 0 1 294.66 280.77)" class="legend4 legend5 legend6">道路</text>
		<text transform="matrix(1 0 0 1 294.66 502.15)" class="legend4 legend5 legend6">湖泊</text>
		<text transform="matrix(1 0 0 1 294.66 716.14)" class="legend4 legend5 legend6">遗产边界</text>
		<line class="legend7" x1="15.6" y1="250.1" x2="220.8" y2="250.1"/>
		<g class="legend8">
			<path class="legend9" d="M6.9,450.9c4.8,0.7,9.6,1.6,14.3,2.9c4.7,1.2,9.2,2.5,13.7,4s9,3.1,13.4,4.7c2.2,0.8,4.4,1.6,6.5,2.5
				s4.3,1.9,6.3,2.8l3,1.4l0.7,0.3l0.6,0.3l0.2,0.1l0.1,0.1l0,0c0,0-0.1,0-0.1,0.1l0.3,0.1l0.6,0.1l0.8,0.1c0.5,0.1,1.1,0.1,1.6,0.2
				c1.1,0.1,2.3,0.1,3.4,0.2c4.7,0.2,9.5,0.1,14.2-0.3c4.7-0.5,9.4-1.2,14.1-2.2l1.8-0.4c0.6-0.1,1.1-0.3,1.6-0.4
				c1.1-0.3,2.1-0.7,3.2-1.1c2.1-0.8,4.2-1.9,6.3-2.9c4.3-2.1,8.9-4.5,14-5.9c1.3-0.4,2.6-0.7,3.9-0.9c0.7-0.1,1.3-0.2,2-0.3l2-0.2
				c1.3-0.1,2.7-0.2,4.1-0.1c1.3,0,2.7,0.1,4,0.2c1.4,0.1,2.7,0.3,4,0.5l2,0.3l1.8,0.3l7,1.2c4.7,0.9,9.4,1.8,14,3s9.2,2.5,13.8,4
				s9.2,3.2,13.8,5.2l1.7,0.8l0.6,0.3l0.5,0.2c0.3,0.2,0.7,0.3,1.1,0.4l0.6,0.2l0.6,0.1c1.9,0.4,3.9,0.5,5.8,0.3
				c4.5-0.4,8.9-1.4,13.1-2.8l0.8-0.3c0.8,0.1,1.6,0.1,2.5,0.2s1.7,0.1,2.5,0.2l0.2,1.5c-0.8,0.4-1.5,0.7-2.3,1s-1.5,0.6-2.3,0.9
				l0.8-0.3c-3.8,3.6-8.2,6.5-13,8.4c-2.6,1.1-5.5,1.8-8.3,2l-1.1,0.1h-1.2c-0.8,0-1.6-0.1-2.4-0.2l-1.2-0.2l-1.1-0.2l-1.6-0.4
				c-8.9-1.8-18.2-3.5-27.4-5.6c-4.6-1.1-9.2-2.3-13.7-3.6l-6.8-2l-1.7-0.5l-1.5-0.4c-1-0.3-2-0.5-3-0.7c-4.1-0.8-8.2-1.2-12.4-1.1
				c-1.1,0-2.1,0.1-3.2,0.1s-2.2,0.2-3.3,0.4c-2.2,0.3-4.5,0.7-6.9,1.2l-7.2,1.4c-1.2,0.2-2.5,0.5-3.7,0.6l-1.9,0.2l-1.8,0.2
				c-4.7,0.5-9.4,1.4-14,2.5c-4.6,1.1-9.2,2.6-13.9,4c-1.2,0.4-2.4,0.7-3.6,1c-0.6,0.1-1.2,0.3-1.9,0.4l-1,0.2
				c-0.4,0.1-0.8,0.1-1.1,0.1l-0.6,0.1h-1h-0.5h-0.3l-0.6-0.1c-0.5,0-0.8-0.1-1.1-0.2l-1-0.2c-1.3-0.2-2.5-0.6-3.8-0.9
				c-4.7-1.3-9.2-3-13.6-5.1c-4.4-2-8.7-4.1-12.9-6.4s-8.4-4.9-12.4-7.5c-4.1-2.6-8-5.6-11.7-8.7L6.9,450.9z"/>
		</g>
		<rect x="10" y="628.2" class="legend10" width="232.4" height="108.5"/>
	</g>
</g>
</svg>
