<svg xmlns="http://www.w3.org/2000/svg" viewBox="0 0 61.78 61.82"><defs><style>.cls-1{fill:#1afa29;stroke:#1afa29;stroke-miterlimit:10;stroke-width:2px;}</style></defs><title>资源 5</title><g id="图层_2" data-name="图层 2"><g id="图层_1-2" data-name="图层 1"><path class="cls-1" d="M11,48.37a2.48,2.48,0,1,0,2.48,2.48A2.47,2.47,0,0,0,11,48.37ZM6,25.93h10V55.82H6ZM29.65,6.62c.17.1.41.07.55.24a2.68,2.68,0,0,1,.69,1.62,15.36,15.36,0,0,1-.31,4.21,46.92,46.92,0,0,0-2.17,10.59l-.17,2.65H53.3a2.44,2.44,0,0,1,2.41,3L50.41,53.89a2.48,2.48,0,0,1-2.48,1.93h-27V24.07ZM26.82,1l-.69,1.41L16.86,21H1V60.82H47.93a7.49,7.49,0,0,0,7.31-5.93L60.61,30a7.53,7.53,0,0,0-7.31-9H33.93a26.15,26.15,0,0,1,1.41-6.69,16.65,16.65,0,0,0,.55-5.76,7.44,7.44,0,0,0-2-5A7.39,7.39,0,0,0,28.41,1H26.82Z"/></g></g></svg>