<svg xmlns="http://www.w3.org/2000/svg" viewBox="0 0 777.29 747.72"><defs><style>.cls-1,.cls-2,.cls-4{fill:#00ff48;}.cls-1{opacity:0.3;}.cls-2{opacity:0.5;}.cls-3{fill:#fff;}.cls-5{font-size:120.66px;fill:#1cef18;font-family:MicrosoftYaHei-Bold, Microsoft YaHei;font-weight:700;}.cls-6,.cls-9{fill:none;stroke-miterlimit:10;stroke-width:20px;}.cls-6{stroke:#ffa901;}.cls-7{opacity:0.8;}.cls-8{fill:#18eaea;}.cls-9{stroke:#08f9ff;}</style></defs><title>资源 4</title><g id="图层_2" data-name="图层 2"><g id="图层_1-2" data-name="图层 1"><circle class="cls-1" cx="125.4" cy="58.24" r="58.24"/><circle class="cls-2" cx="125.4" cy="58.24" r="39.29"/><circle class="cls-3" cx="125.4" cy="58.24" r="21.83"/><circle class="cls-4" cx="125.4" cy="58.24" r="11.5"/><text class="cls-5" transform="translate(294.66 109.58)">遗产点</text><text class="cls-5" transform="translate(294.66 280.77)">道路</text><text class="cls-5" transform="translate(294.66 502.15)">湖泊</text><text class="cls-5" transform="translate(294.66 716.14)">遗产边界</text><line class="cls-6" x1="15.65" y1="250.06" x2="220.79" y2="250.06"/><g class="cls-7"><path class="cls-8" d="M6.92,450.92a120.46,120.46,0,0,1,14.3,2.85c4.66,1.18,9.23,2.54,13.74,4s9,3.06,13.37,4.72c2.2.84,4.4,1.64,6.55,2.54s4.27,1.85,6.32,2.82l3,1.41.68.31.59.28.24.12.1.06,0,0a.29.29,0,0,0-.09.07l.3.06.64.13.76.1c.5.08,1.07.11,1.62.16,1.11.09,2.27.15,3.43.19a103,103,0,0,0,14.21-.33,123.35,123.35,0,0,0,14.08-2.24l1.75-.39c.55-.14,1.08-.27,1.62-.43,1.07-.29,2.14-.69,3.19-1.09,2.12-.83,4.21-1.87,6.34-2.94,4.28-2.13,8.86-4.48,14-5.85a36.4,36.4,0,0,1,3.93-.87c.66-.11,1.33-.23,2-.33l2-.18a33.83,33.83,0,0,1,4.05-.13,39.82,39.82,0,0,1,4,.2c1.35.07,2.66.27,4,.47l2,.29,1.77.3,7,1.24c4.68.87,9.36,1.8,14,3s9.25,2.49,13.84,4,9.17,3.16,13.76,5.18l1.73.78.6.27.48.24a4.82,4.82,0,0,0,1.07.4l.57.19.63.11a20.11,20.11,0,0,0,5.78.27A59,59,0,0,0,224,470.1l.75-.29c.83.06,1.65.1,2.48.18s1.66.14,2.49.25l.23,1.48c-.76.35-1.53.67-2.3,1s-1.54.62-2.31.93l.75-.29a41.45,41.45,0,0,1-13,8.43,27.11,27.11,0,0,1-8.31,2l-1.14.08-1.19,0a14.74,14.74,0,0,1-2.43-.22l-1.24-.23-1.11-.23-1.64-.36c-8.91-1.84-18.25-3.46-27.41-5.62-4.59-1.08-9.16-2.33-13.72-3.62l-6.84-2-1.7-.5-1.52-.4a30.31,30.31,0,0,0-3-.73,56.58,56.58,0,0,0-12.35-1.09c-1.06,0-2.13.1-3.22.15s-2.18.19-3.3.37c-2.22.27-4.54.71-6.87,1.17l-7.21,1.43c-1.25.19-2.46.46-3.73.58l-1.88.24-1.77.18a112.85,112.85,0,0,0-14,2.5c-4.64,1.12-9.2,2.6-13.94,4-1.19.35-2.39.68-3.64,1-.63.15-1.24.31-1.93.43l-1,.2c-.36.06-.76.1-1.14.14l-.59.06-1,0-.49,0-.33,0-.63-.08c-.45-.05-.78-.11-1.13-.18l-1-.19c-1.31-.25-2.55-.56-3.75-.88a83.86,83.86,0,0,1-13.64-5.06c-4.38-2-8.67-4.08-12.87-6.38S22.06,463.68,18,461a106.68,106.68,0,0,1-11.72-8.74Z"/></g><rect class="cls-9" x="10" y="628.2" width="232.42" height="108.46"/></g></g></svg>